# xmcd CD database file
#
# Track frame offsets:
#	150
#	27011
#	58639
#	105309
#	142463
#	169208
#	206936
#	240480
#	281027
#
# Disc length: 4063 seconds
#
# Revision: 2
# Processed by: cddbd v1.5.2PL0 Copyright (c) Steve Scherf et al.
# Submitted via: CDex 1.70beta2
#
DISCID=850fdd09
DTITLE=Girotto, Nastro, Cohen, Gatto - Sea Inside
DYEAR=2007
DGENRE=Jazz
TTITLE0=Song For Avishai
TTITLE1=When She Leaves
TTITLE2=Rough Sea
TTITLE3=Il Suo Lato Migliore
TTITLE4=Ann's Tune
TTITLE5=Meccanica Quantistica
TTITLE6=B Song
TTITLE7=We Got On Well
TTITLE8=El Pibe De Oro
EXTD=YEAR: 2007
EXTT0=
EXTT1=
EXTT2=
EXTT3=
EXTT4=
EXTT5=
EXTT6=
EXTT7=
EXTT8=
PLAYORDER=
